solid AssimpScene
 facet normal -0.249707 0.335139 0.908476
  outer loop
  vertex 29.227 18.7072 44.5395
  vertex 46.16 16.6259 49.9615
  vertex 36.5189 26.3574 43.7216
  endloop
 endfacet

 facet normal 0.586634 -0.680235 -0.439478
  outer loop
  vertex 46.7509 -33.6833 10.309
  vertex 55.2598 -29.1207 14.605
  vertex 55.1358 -33.819 21.7115
  endloop
 endfacet

 facet normal -0.589704 0.0224012 0.807309
  outer loop
  vertex 31.1172 26.4994 112.434
  vertex 23.362 20.3964 106.939
  vertex 29.5429 11.7657 111.693
  endloop
 endfacet

 facet normal -0.11968 -0.779742 0.614556
  outer loop
  vertex 13.9773 -17.5217 65.4339
  vertex 12.4604 -27.6314 52.3115
  vertex 27.1611 -20.2105 64.5898
  endloop
 endfacet

 facet normal 0.00984429 0.9551 -0.296119
  outer loop
  vertex 29.227 18.7072 44.5395
  vertex 21.0509 14.744 31.4851
  vertex 5.59186 20.2002 48.5694
  endloop
 endfacet

 facet normal 0.342204 0.937465 -0.0636837
  outer loop
  vertex 56.6766 18.9335 42.754
  vertex 63.9359 15.7362 34.6951
  vertex 36.5189 26.3574 43.7216
  endloop
 endfacet

 facet normal -0.886086 -0.0928871 -0.454118
  outer loop
  vertex -19.512 -24.398 57.5565
  vertex -22.7219 -26.3611 64.2214
  vertex -22.557 -7.86388 60.1161
  endloop
 endfacet

 facet normal 0.788098 0.455361 -0.414182
  outer loop
  vertex 63.0925 13.9103 22.043
  vertex 74.1037 -2.43334 25.0263
  vertex 65.3927 1.68511 12.9791
  endloop
 endfacet

 facet normal -0.173166 0.983629 -0.0498786
  outer loop
  vertex 8.38038 43.9843 107.664
  vertex 18.3093 45.1973 97.1142
  vertex 6.27608 42.7545 90.716
  endloop
 endfacet

 facet normal 0.285974 0.874179 -0.392467
  outer loop
  vertex 56.4394 12.5683 14.206
  vertex 49.9605 21.4943 29.3667
  vertex 63.0925 13.9103 22.043
  endloop
 endfacet

 facet normal -0.98085 0.139868 -0.135533
  outer loop
  vertex 7.37312 -20.2731 19.886
  vertex 10.0612 -10.7915 10.2174
  vertex 7.33785 -24.8425 15.4258
  endloop
 endfacet

 facet normal 0.176412 0.944634 -0.276667
  outer loop
  vertex 49.9605 21.4943 29.3667
  vertex 38.3743 19.9742 16.789
  vertex 28.565 26.4273 32.5673
  endloop
 endfacet

 facet normal -0.132961 -0.780737 0.61055
  outer loop
  vertex -1.81486 -7.48487 11.8594
  vertex -0.456871 -12.8818 5.25388
  vertex 10.0612 -10.7915 10.2174
  endloop
 endfacet

 facet normal -0.266421 0.504071 0.821543
  outer loop
  vertex 10.3931 6.12479 14.8424
  vertex 31.863 17.0913 15.0763
  vertex 13.4674 17.5026 8.85838
  endloop
 endfacet

 facet normal 0.455603 0.83283 0.314358
  outer loop
  vertex 4.80457 10.3277 78.931
  vertex 9.65761 7.29352 79.9358
  vertex 11.3227 10.6954 68.51
  endloop
 endfacet

 facet normal 0.974927 -0.152224 0.162309
  outer loop
  vertex 82.9968 -9.75807 31.6852
  vertex 82.0118 -22.4488 25.6991
  vertex 84.2329 -10.8092 23.2742
  endloop
 endfacet

 facet normal 0.183934 0.941797 0.281402
  outer loop
  vertex 16.2198 41.0042 112.514
  vertex 18.3093 45.1973 97.1142
  vertex 8.38038 43.9843 107.664
  endloop
 endfacet

 facet normal 0.980362 0.183542 -0.0721246
  outer loop
  vertex 4.80457 10.3277 78.931
  vertex 3.33072 19.6172 82.5374
  vertex 4.80431 14.3531 89.1712
  endloop
 endfacet

 facet normal -0.902595 0.381198 -0.200025
  outer loop
  vertex -23.8899 -7.02868 67.7221
  vertex -17.0163 6.63105 62.738
  vertex -22.557 -7.86388 60.1161
  endloop
 endfacet

 facet normal 0.195214 -0.873387 0.446192
  outer loop
  vertex 10.3975 -3.88809 89.7095
  vertex 22.6169 2.45895 96.7873
  vertex 7.05195 -3.02998 92.853
  endloop
 endfacet

 facet normal -0.214687 -0.81696 0.535244
  outer loop
  vertex 19.8744 -37.0502 7.22532
  vertex 31.4526 -34.7439 15.3895
  vertex 17.848 -29.9476 17.2534
  endloop
 endfacet

 facet normal -0.026231 0.756054 -0.653983
  outer loop
  vertex 28.9024 20.6026 94.5502
  vertex 36.3632 19.8498 93.3807
  vertex 9.65761 7.29352 79.9358
  endloop
 endfacet

 facet normal 0.348472 0.934478 0.072929
  outer loop
  vertex 59.223 11.8868 63.9912
  vertex 68.2421 9.49475 51.547
  vertex 57.8143 13.2049 53.8334
  endloop
 endfacet

 facet normal 0.701808 -0.70147 -0.124117
  outer loop
  vertex 77.1601 -20.2484 40.0356
  vertex 64.2776 -29.0771 17.0897
  vertex 75.2355 -20.4616 30.3582
  endloop
 endfacet

 facet normal 0.95111 0.266762 -0.155653
  outer loop
  vertex 38.1957 23.4682 110.779
  vertex 36.3632 19.8498 93.3807
  vertex 35.3632 30.6435 105.769
  endloop
 endfacet

 facet normal 0.431072 -0.412088 0.802721
  outer loop
  vertex 75.2355 -20.4616 30.3582
  vertex 82.0118 -22.4488 25.6991
  vertex 82.9968 -9.75807 31.6852
  endloop
 endfacet

 facet normal 0.468529 -0.845368 0.256582
  outer loop
  vertex 55.1522 -35.4013 50.3492
  vertex 71.8478 -25.795 51.5126
  vertex 62.428 -28.3823 60.189
  endloop
 endfacet

 facet normal 0.998573 0.013122 0.0517728
  outer loop
  vertex 76.1413 -2.21627 55.116
  vertex 77.1601 -20.2484 40.0356
  vertex 77.4438 -9.29252 31.7864
  endloop
 endfacet

 facet normal -0.877392 -0.472229 0.084753
  outer loop
  vertex -20.5117 -9.21455 46.4417
  vertex -15.6197 -19.235 41.2536
  vertex -15.2951 -17.3399 55.1727
  endloop
 endfacet

 facet normal 0.303974 0.179527 0.935612
  outer loop
  vertex 48.752 -10.7503 75.2489
  vertex 63.7695 -6.07431 69.4726
  vertex 50.7957 1.5085 72.2327
  endloop
 endfacet

 facet normal -0.877422 -0.129336 -0.461956
  outer loop
  vertex -16.0818 1.18279 36.2723
  vertex -7.13561 -15.087 23.8353
  vertex -10.108 -20.9836 31.132
  endloop
 endfacet

 facet normal 0.701609 0.593441 0.394427
  outer loop
  vertex 59.223 11.8868 63.9912
  vertex 76.1413 -2.21627 55.116
  vertex 68.2421 9.49475 51.547
  endloop
 endfacet

 facet normal 0.86883 0.480498 0.119399
  outer loop
  vertex 13.1848 0.510763 81.5657
  vertex 16.8818 -3.67468 71.5072
  vertex 9.65761 7.29352 79.9358
  endloop
 endfacet

 facet normal -0.886002 0.424515 -0.186516
  outer loop
  vertex -7.09631 11.3793 82.828
  vertex 6.27608 42.7545 90.716
  vertex 4.5982 36.3585 84.129
  endloop
 endfacet

 facet normal -0.465577 0.612075 -0.63922
  outer loop
  vertex -17.3628 -2.17747 54.5558
  vertex -17.0163 6.63105 62.738
  vertex -5.46256 11.1365 58.6369
  endloop
 endfacet

 facet normal -0.433103 0.852695 0.292118
  outer loop
  vertex 5.59186 20.2002 48.5694
  vertex -8.19249 14.4554 44.9015
  vertex -5.46256 11.1365 58.6369
  endloop
 endfacet

 facet normal 0.230175 0.38371 -0.894308
  outer loop
  vertex 3.33072 19.6172 82.5374
  vertex 4.80457 10.3277 78.931
  vertex -2.56485 12.4585 77.9485
  endloop
 endfacet

 facet normal -0.277618 0.550729 0.787163
  outer loop
  vertex 1.88037 37.0664 110.211
  vertex 16.2198 41.0042 112.514
  vertex 8.38038 43.9843 107.664
  endloop
 endfacet

 facet normal -0.505977 -0.482207 0.715167
  outer loop
  vertex -2.58205 3.29196 90.2996
  vertex 7.05195 -3.02998 92.853
  vertex 9.6797 4.99755 100.125
  endloop
 endfacet

 facet normal -0.0573143 0.297561 0.952981
  outer loop
  vertex -4.20537 -8.04033 93.7404
  vertex 7.05195 -3.02998 92.853
  vertex -2.58205 3.29196 90.2996
  endloop
 endfacet

 facet normal -0.151618 0.199997 0.967994
  outer loop
  vertex 4.80431 14.3531 89.1712
  vertex -2.58205 3.29196 90.2996
  vertex 6.38619 8.42578 90.6436
  endloop
 endfacet

 facet normal -0.398437 -0.102907 0.911405
  outer loop
  vertex -21.5937 -5.90878 86.3794
  vertex -14.1174 -16.907 88.406
  vertex -4.20537 -8.04033 93.7404
  endloop
 endfacet

 facet normal -0.919022 0.0115292 0.394039
  outer loop
  vertex -23.8899 -7.02868 67.7221
  vertex -20.0183 -24.4914 77.2628
  vertex -19.3417 -1.29074 78.1619
  endloop
 endfacet

 facet normal 0.979703 0.200362 -0.00607373
  outer loop
  vertex 76.1413 -2.21627 55.116
  vertex 77.4438 -9.29252 31.7864
  vertex 74.1775 6.97171 41.443
  endloop
 endfacet

 facet normal -0.0760451 -0.494929 0.8656
  outer loop
  vertex 3.63042 -19.4018 88.5387
  vertex -14.1174 -16.907 88.406
  vertex -6.7721 -27.3672 83.0704
  endloop
 endfacet

 facet normal 0.587664 0.550321 -0.593126
  outer loop
  vertex 63.0925 13.9103 22.043
  vertex 65.3927 1.68511 12.9791
  vertex 56.4394 12.5683 14.206
  endloop
 endfacet

 facet normal -0.612968 0.653282 -0.444403
  outer loop
  vertex -16.0818 1.18279 36.2723
  vertex -8.19249 14.4554 44.9015
  vertex -7.55354 1.50641 24.9849
  endloop
 endfacet

 facet normal -0.257314 0.841494 0.475055
  outer loop
  vertex 11.3227 10.6954 68.51
  vertex 5.59186 20.2002 48.5694
  vertex -5.46256 11.1365 58.6369
  endloop
 endfacet

 facet normal -0.690508 -0.709935 -0.138534
  outer loop
  vertex 16.2963 -30.7114 28.9017
  vertex 7.37312 -20.2731 19.886
  vertex 17.848 -29.9476 17.2534
  endloop
 endfacet

 facet normal -0.940316 0.317917 0.121387
  outer loop
  vertex 8.90513 5.3768 5.27491
  vertex 10.3931 6.12479 14.8424
  vertex 13.4674 17.5026 8.85838
  endloop
 endfacet

 facet normal 0.000919387 -0.00183165 -0.999998
  outer loop
  vertex 54.832 12.9908 5.35187
  vertex 54.9234 -0.264993 5.37624
  vertex 22.3958 18.5504 5.31187
  endloop
 endfacet

 facet normal -0.916661 0.399559 0.00921221
  outer loop
  vertex -17.3628 -2.17747 54.5558
  vertex -16.0818 1.18279 36.2723
  vertex -20.5117 -9.21455 46.4417
  endloop
 endfacet

 facet normal 0.389583 0.357629 0.84872
  outer loop
  vertex 50.7957 1.5085 72.2327
  vertex 63.7695 -6.07431 69.4726
  vertex 59.223 11.8868 63.9912
  endloop
 endfacet

 facet normal -0.422571 -0.629388 0.652153
  outer loop
  vertex -6.7721 -27.3672 83.0704
  vertex -14.1174 -16.907 88.406
  vertex -20.0183 -24.4914 77.2628
  endloop
 endfacet

 facet normal -0.358141 -0.208137 0.910173
  outer loop
  vertex 47.8806 -23.292 72.038
  vertex 48.752 -10.7503 75.2489
  vertex 27.1611 -20.2105 64.5898
  endloop
 endfacet

 facet normal 0.967528 0.235251 -0.0924515
  outer loop
  vertex 6.38619 8.42578 90.6436
  vertex 4.80457 10.3277 78.931
  vertex 4.80431 14.3531 89.1712
  endloop
 endfacet

 facet normal 0.230997 -0.758444 0.609428
  outer loop
  vertex 42.5512 -31.0914 64.3516
  vertex 62.428 -28.3823 60.189
  vertex 47.8806 -23.292 72.038
  endloop
 endfacet

 facet normal 0.000771529 -0.00208726 -0.999998
  outer loop
  vertex 22.3958 18.5504 5.31187
  vertex 54.9234 -0.264993 5.37624
  vertex -6.45279 -22.7646 5.37584
  endloop
 endfacet

 facet normal -0.672426 0.709476 0.21092
  outer loop
  vertex 8.38038 43.9843 107.664
  vertex -4.46217 33.0562 103.48
  vertex 1.88037 37.0664 110.211
  endloop
 endfacet

 facet normal 0.0826317 0.989132 0.121617
  outer loop
  vertex 32.6508 16.5741 59.5619
  vertex 46.16 16.6259 49.9615
  vertex 29.227 18.7072 44.5395
  endloop
 endfacet

 facet normal -0.477392 0.85748 -0.191899
  outer loop
  vertex 21.0509 14.744 31.4851
  vertex 31.863 17.0913 15.0763
  vertex 6.23926 4.2788 21.5696
  endloop
 endfacet

 facet normal -0.642782 -0.734203 0.21858
  outer loop
  vertex -4.71178 -24.599 55.313
  vertex -15.6197 -19.235 41.2536
  vertex -1.69333 -30.4149 44.6539
  endloop
 endfacet

 facet normal -0.433099 0.872909 -0.224622
  outer loop
  vertex 6.38619 8.42578 90.6436
  vertex 28.9024 20.6026 94.5502
  vertex 9.65761 7.29352 79.9358
  endloop
 endfacet

 facet normal 0.704914 -0.573678 -0.41712
  outer loop
  vertex 74.378 -16.983 5.28087
  vertex 82.0118 -22.4488 25.6991
  vertex 67.266 -25.7619 5.33583
  endloop
 endfacet

 facet normal 0.653451 0.367388 0.661836
  outer loop
  vertex 76.1413 -2.21627 55.116
  vertex 59.223 11.8868 63.9912
  vertex 63.7695 -6.07431 69.4726
  endloop
 endfacet

 facet normal 0.383511 0.835844 0.392791
  outer loop
  vertex 57.8143 13.2049 53.8334
  vertex 68.2421 9.49475 51.547
  vertex 56.6766 18.9335 42.754
  endloop
 endfacet

 facet normal -0.187196 0.0971092 -0.977511
  outer loop
  vertex -5.43409 1.44832 7.63063
  vertex 8.90513 5.3768 5.27491
  vertex -0.456871 -12.8818 5.25388
  endloop
 endfacet

 facet normal -0.0411048 0.98159 0.186526
  outer loop
  vertex 22.3958 18.5504 5.31187
  vertex 13.4674 17.5026 8.85838
  vertex 31.863 17.0913 15.0763
  endloop
 endfacet

 facet normal 0.983951 0.00645423 -0.178321
  outer loop
  vertex 54.832 12.9908 5.35187
  vertex 56.4394 12.5683 14.206
  vertex 54.9234 -0.264993 5.37624
  endloop
 endfacet

 facet normal -0.356311 -0.520957 0.775659
  outer loop
  vertex 42.5512 -31.0914 64.3516
  vertex 47.8806 -23.292 72.038
  vertex 27.1611 -20.2105 64.5898
  endloop
 endfacet

 facet normal 0.759269 -0.0136287 0.650634
  outer loop
  vertex 76.1413 -2.21627 55.116
  vertex 63.7695 -6.07431 69.4726
  vertex 67.7567 -19.7853 64.5325
  endloop
 endfacet

 facet normal 0.366202 -0.926269 -0.0889991
  outer loop
  vertex 42.7133 -41.4276 30.4594
  vertex 62.8857 -34.1177 37.3827
  vertex 49.2078 -39.9662 41.9724
  endloop
 endfacet

 facet normal -0.075965 -0.993463 0.0852051
  outer loop
  vertex 27.7241 -39.7768 41.869
  vertex 31.1809 -41.3066 27.1143
  vertex 39.4984 -40.3041 46.2183
  endloop
 endfacet

 facet normal -0.622716 0.641454 0.448065
  outer loop
  vertex 36.5189 26.3574 43.7216
  vertex 28.565 26.4273 32.5673
  vertex 29.227 18.7072 44.5395
  endloop
 endfacet

 facet normal -0.867759 0.496056 0.0303731
  outer loop
  vertex -17.3628 -2.17747 54.5558
  vertex -8.19249 14.4554 44.9015
  vertex -16.0818 1.18279 36.2723
  endloop
 endfacet

 facet normal -0.240988 0.836591 -0.491976
  outer loop
  vertex 31.863 17.0913 15.0763
  vertex 28.565 26.4273 32.5673
  vertex 38.3743 19.9742 16.789
  endloop
 endfacet

 facet normal -0.15762 0.260631 0.952485
  outer loop
  vertex 29.2369 1.37228 68.7024
  vertex 48.752 -10.7503 75.2489
  vertex 50.7957 1.5085 72.2327
  endloop
 endfacet

 facet normal -0.893436 -0.104061 0.43697
  outer loop
  vertex -20.5117 -9.21455 46.4417
  vertex -15.2951 -17.3399 55.1727
  vertex -17.3628 -2.17747 54.5558
  endloop
 endfacet

 facet normal -0.746178 0.518577 -0.417488
  outer loop
  vertex 28.565 26.4273 32.5673
  vertex 31.863 17.0913 15.0763
  vertex 21.0509 14.744 31.4851
  endloop
 endfacet

 facet normal 0.421307 0.625129 0.65705
  outer loop
  vertex 31.1172 26.4994 112.434
  vertex 38.1957 23.4682 110.779
  vertex 35.3632 30.6435 105.769
  endloop
 endfacet

 facet normal -0.379066 0.390544 -0.838919
  outer loop
  vertex 13.4674 17.5026 8.85838
  vertex 22.3958 18.5504 5.31187
  vertex 8.90513 5.3768 5.27491
  endloop
 endfacet

 facet normal -0.762522 0.630431 0.145319
  outer loop
  vertex -9.31655 8.58915 87.9046
  vertex -19.3417 -1.29074 78.1619
  vertex -21.5937 -5.90878 86.3794
  endloop
 endfacet

 facet normal -0.580964 -0.383519 0.71791
  outer loop
  vertex 1.37167 -29.6384 8.03567
  vertex 7.33785 -24.8425 15.4258
  vertex -6.45279 -22.7646 5.37584
  endloop
 endfacet

 facet normal -0.904422 0.384929 -0.183985
  outer loop
  vertex -4.24593 23.641 94.4699
  vertex -7.09631 11.3793 82.828
  vertex -9.31655 8.58915 87.9046
  endloop
 endfacet

 facet normal -0.979307 0.0521316 0.195551
  outer loop
  vertex -22.7219 -26.3611 64.2214
  vertex -20.0183 -24.4914 77.2628
  vertex -22.557 -7.86388 60.1161
  endloop
 endfacet

 facet normal -0.0324627 -0.789937 0.612328
  outer loop
  vertex -4.71178 -24.599 55.313
  vertex 12.4604 -27.6314 52.3115
  vertex 13.9773 -17.5217 65.4339
  endloop
 endfacet

 facet normal -0.233381 -0.609747 0.757457
  outer loop
  vertex 7.05195 -3.02998 92.853
  vertex 29.5429 11.7657 111.693
  vertex 9.6797 4.99755 100.125
  endloop
 endfacet

 facet normal -0.407118 -0.706727 0.578612
  outer loop
  vertex -20.0183 -24.4914 77.2628
  vertex -14.4832 -32.9049 70.881
  vertex -6.7721 -27.3672 83.0704
  endloop
 endfacet

 facet normal 0.290235 0.703506 0.648724
  outer loop
  vertex 56.6766 18.9335 42.754
  vertex 36.5189 26.3574 43.7216
  vertex 46.16 16.6259 49.9615
  endloop
 endfacet

 facet normal 0.24934 0.949701 0.189468
  outer loop
  vertex -2.56485 12.4585 77.9485
  vertex 4.80457 10.3277 78.931
  vertex 11.3227 10.6954 68.51
  endloop
 endfacet

 facet normal -0.936807 -0.339431 0.0847333
  outer loop
  vertex -0.456871 -12.8818 5.25388
  vertex -1.81486 -7.48487 11.8594
  vertex -5.43409 1.44832 7.63063
  endloop
 endfacet

 facet normal 0.786147 -0.387089 -0.481804
  outer loop
  vertex 4.80431 14.3531 89.1712
  vertex 3.33072 19.6172 82.5374
  vertex 19.4853 38.6301 93.6212
  endloop
 endfacet

 facet normal -0.219698 0.854613 0.470498
  outer loop
  vertex 11.3227 10.6954 68.51
  vertex 17.3738 15.5957 62.4346
  vertex 5.59186 20.2002 48.5694
  endloop
 endfacet

 facet normal -0.454852 0.286365 0.84327
  outer loop
  vertex -6.45279 -22.7646 5.37584
  vertex 10.0612 -10.7915 10.2174
  vertex -0.456871 -12.8818 5.25388
  endloop
 endfacet

 facet normal -0.135192 0.58017 0.803197
  outer loop
  vertex 43.6051 11.6081 63.7272
  vertex 29.2369 1.37228 68.7024
  vertex 50.7957 1.5085 72.2327
  endloop
 endfacet

 facet normal 0.849227 -0.469128 -0.242348
  outer loop
  vertex 19.4853 38.6301 93.6212
  vertex 21.2407 36.329 104.227
  vertex 4.80431 14.3531 89.1712
  endloop
 endfacet

 facet normal 0.685933 -0.689787 0.231708
  outer loop
  vertex 5.31533 -16.9999 80.2601
  vertex -5.8182 -33.935 62.8038
  vertex 1.50083 -25.9176 65.0045
  endloop
 endfacet

 facet normal 0.812319 -0.368614 0.451953
  outer loop
  vertex 13.1848 0.510763 81.5657
  vertex 13.9773 -17.5217 65.4339
  vertex 16.8818 -3.67468 71.5072
  endloop
 endfacet

 facet normal -0.728272 0.682927 0.0568414
  outer loop
  vertex -9.31655 8.58915 87.9046
  vertex -7.09631 11.3793 82.828
  vertex -19.3417 -1.29074 78.1619
  endloop
 endfacet

 facet normal 0.695938 -0.577421 0.426914
  outer loop
  vertex 5.31533 -16.9999 80.2601
  vertex 13.9773 -17.5217 65.4339
  vertex 10.3975 -3.88809 89.7095
  endloop
 endfacet

 facet normal 0.089285 -0.935568 -0.341674
  outer loop
  vertex 31.1809 -41.3066 27.1143
  vertex 46.7509 -33.6833 10.309
  vertex 42.7133 -41.4276 30.4594
  endloop
 endfacet

 facet normal -0.83725 0.389468 -0.383833
  outer loop
  vertex -17.0163 6.63105 62.738
  vertex -17.3628 -2.17747 54.5558
  vertex -22.557 -7.86388 60.1161
  endloop
 endfacet

 facet normal 0.749381 0.594383 0.291781
  outer loop
  vertex 76.1413 -2.21627 55.116
  vertex 74.1775 6.97171 41.443
  vertex 68.2421 9.49475 51.547
  endloop
 endfacet

 facet normal -0.000621401 -0.00193381 -0.999998
  outer loop
  vertex 67.266 -25.7619 5.33583
  vertex -6.45279 -22.7646 5.37584
  vertex 70.4716 -5.59137 5.29483
  endloop
 endfacet

 facet normal 0.264748 0.781459 -0.565005
  outer loop
  vertex 54.9234 -0.264993 5.37624
  vertex 65.3927 1.68511 12.9791
  vertex 70.4716 -5.59137 5.29483
  endloop
 endfacet

 facet normal 0.698794 -0.714982 -0.022086
  outer loop
  vertex 71.8478 -25.795 51.5126
  vertex 62.8857 -34.1177 37.3827
  vertex 77.1601 -20.2484 40.0356
  endloop
 endfacet

 facet normal -0.0755468 -0.884162 0.461032
  outer loop
  vertex 12.4604 -27.6314 52.3115
  vertex -4.71178 -24.599 55.313
  vertex -1.69333 -30.4149 44.6539
  endloop
 endfacet

 facet normal 0.083196 0.989101 0.121484
  outer loop
  vertex 5.59186 20.2002 48.5694
  vertex 32.6508 16.5741 59.5619
  vertex 29.227 18.7072 44.5395
  endloop
 endfacet

 facet normal -0.470511 -0.677869 0.5649
  outer loop
  vertex 27.1611 -20.2105 64.5898
  vertex 23.5493 -31.6159 47.8953
  vertex 42.5512 -31.0914 64.3516
  endloop
 endfacet

 facet normal -0.312427 -0.759679 -0.570331
  outer loop
  vertex -1.42583 -28.6978 35.9278
  vertex 7.37312 -20.2731 19.886
  vertex 16.2963 -30.7114 28.9017
  endloop
 endfacet

 facet normal -0.442811 0.877652 -0.183426
  outer loop
  vertex 23.362 20.3964 106.939
  vertex 28.9024 20.6026 94.5502
  vertex 6.38619 8.42578 90.6436
  endloop
 endfacet

 facet normal -0.0320795 0.999061 0.0291346
  outer loop
  vertex 41.2332 26.832 32.6388
  vertex 28.565 26.4273 32.5673
  vertex 36.5189 26.3574 43.7216
  endloop
 endfacet

 facet normal 0.240929 0.664914 -0.706995
  outer loop
  vertex 18.3093 45.1973 97.1142
  vertex 4.5982 36.3585 84.129
  vertex 6.27608 42.7545 90.716
  endloop
 endfacet

 facet normal 0.845349 0.475187 0.244097
  outer loop
  vertex 16.2198 41.0042 112.514
  vertex 21.2407 36.329 104.227
  vertex 18.3093 45.1973 97.1142
  endloop
 endfacet

 facet normal -0.252826 0.113013 0.960889
  outer loop
  vertex -9.31655 8.58915 87.9046
  vertex -21.5937 -5.90878 86.3794
  vertex -2.58205 3.29196 90.2996
  endloop
 endfacet

 facet normal 0.342306 0.824772 0.450087
  outer loop
  vertex 82.9968 -9.75807 31.6852
  vertex 79.9774 -3.08799 21.7587
  vertex 74.1037 -2.43334 25.0263
  endloop
 endfacet

 facet normal -0.759511 0.481118 0.4378
  outer loop
  vertex 9.6797 4.99755 100.125
  vertex 23.362 20.3964 106.939
  vertex 6.38619 8.42578 90.6436
  endloop
 endfacet

 facet normal 0.132049 -0.850534 0.509072
  outer loop
  vertex 55.1522 -35.4013 50.3492
  vertex 62.428 -28.3823 60.189
  vertex 39.4984 -40.3041 46.2183
  endloop
 endfacet

 facet normal -0.715926 -0.654785 0.242295
  outer loop
  vertex -20.0183 -24.4914 77.2628
  vertex -22.7219 -26.3611 64.2214
  vertex -14.4832 -32.9049 70.881
  endloop
 endfacet

 facet normal 0.369542 -0.907425 -0.200046
  outer loop
  vertex 55.1358 -33.819 21.7115
  vertex 64.2776 -29.0771 17.0897
  vertex 62.8857 -34.1177 37.3827
  endloop
 endfacet

 facet normal 0.518972 -0.788128 0.330941
  outer loop
  vertex 5.31533 -16.9999 80.2601
  vertex 1.50083 -25.9176 65.0045
  vertex 13.9773 -17.5217 65.4339
  endloop
 endfacet

 facet normal 0.207649 -0.885777 0.415067
  outer loop
  vertex 62.428 -28.3823 60.189
  vertex 42.5512 -31.0914 64.3516
  vertex 39.4984 -40.3041 46.2183
  endloop
 endfacet

 facet normal -0.0476079 0.673776 -0.7374
  outer loop
  vertex 36.3632 19.8498 93.3807
  vertex 28.9024 20.6026 94.5502
  vertex 30.0411 30.6012 103.613
  endloop
 endfacet

 facet normal -0.0826433 0.527102 0.845774
  outer loop
  vertex 32.6508 16.5741 59.5619
  vertex 29.2369 1.37228 68.7024
  vertex 43.6051 11.6081 63.7272
  endloop
 endfacet

 facet normal -0.477274 -0.666797 0.572357
  outer loop
  vertex 42.5512 -31.0914 64.3516
  vertex 23.5493 -31.6159 47.8953
  vertex 27.7241 -39.7768 41.869
  endloop
 endfacet

 facet normal 0.116656 -0.0829887 -0.989699
  outer loop
  vertex -0.456871 -12.8818 5.25388
  vertex 22.3958 18.5504 5.31187
  vertex -6.45279 -22.7646 5.37584
  endloop
 endfacet

 facet normal -0.740616 0.636515 0.215258
  outer loop
  vertex -7.09631 11.3793 82.828
  vertex -17.0163 6.63105 62.738
  vertex -19.3417 -1.29074 78.1619
  endloop
 endfacet

 facet normal -0.599426 -0.78169 -0.172192
  outer loop
  vertex -1.42583 -28.6978 35.9278
  vertex -1.69333 -30.4149 44.6539
  vertex -10.108 -20.9836 31.132
  endloop
 endfacet

 facet normal 0.956886 -0.169173 0.236115
  outer loop
  vertex 10.3975 -3.88809 89.7095
  vertex 13.9773 -17.5217 65.4339
  vertex 13.1848 0.510763 81.5657
  endloop
 endfacet

 facet normal 0.00732587 -0.128254 0.991714
  outer loop
  vertex 75.2355 -20.4616 30.3582
  vertex 82.9968 -9.75807 31.6852
  vertex 77.4438 -9.29252 31.7864
  endloop
 endfacet

 facet normal 0.868324 0.491562 0.0661878
  outer loop
  vertex 82.9968 -9.75807 31.6852
  vertex 84.2329 -10.8092 23.2742
  vertex 79.9774 -3.08799 21.7587
  endloop
 endfacet

 facet normal -0.765411 -0.586744 0.264343
  outer loop
  vertex 23.5493 -31.6159 47.8953
  vertex 16.2963 -30.7114 28.9017
  vertex 27.7241 -39.7768 41.869
  endloop
 endfacet

 facet normal 0.23155 0.462576 0.855808
  outer loop
  vertex 29.2369 1.37228 68.7024
  vertex 32.6508 16.5741 59.5619
  vertex 11.3227 10.6954 68.51
  endloop
 endfacet

 facet normal -0.000346499 0.00482737 -0.999988
  outer loop
  vertex 46.4701 -32.1801 5.31205
  vertex -6.45279 -22.7646 5.37584
  vertex 67.266 -25.7619 5.33583
  endloop
 endfacet

 facet normal 0.0312673 0.663773 -0.74728
  outer loop
  vertex 2.11345 16.7165 32.4448
  vertex 21.0509 14.744 31.4851
  vertex 6.23926 4.2788 21.5696
  endloop
 endfacet

 facet normal -0.311118 -0.947511 0.0736844
  outer loop
  vertex 16.2963 -30.7114 28.9017
  vertex 23.5493 -31.6159 47.8953
  vertex 12.4604 -27.6314 52.3115
  endloop
 endfacet

 facet normal -0.269181 0.962511 -0.0333846
  outer loop
  vertex 8.90513 5.3768 5.27491
  vertex -5.43409 1.44832 7.63063
  vertex 10.3931 6.12479 14.8424
  endloop
 endfacet

 facet normal -0.11667 -0.963429 0.241232
  outer loop
  vertex 67.266 -25.7619 5.33583
  vertex 82.0118 -22.4488 25.6991
  vertex 75.2355 -20.4616 30.3582
  endloop
 endfacet

 facet normal -0.0113981 0.508982 -0.860702
  outer loop
  vertex 41.2332 26.832 32.6388
  vertex 49.9605 21.4943 29.3667
  vertex 28.565 26.4273 32.5673
  endloop
 endfacet

 facet normal -0.524167 0.0910533 0.846734
  outer loop
  vertex 23.362 20.3964 106.939
  vertex 9.6797 4.99755 100.125
  vertex 29.5429 11.7657 111.693
  endloop
 endfacet

 facet normal 0.198411 -0.070374 0.977589
  outer loop
  vertex 38.1957 23.4682 110.779
  vertex 31.1172 26.4994 112.434
  vertex 29.5429 11.7657 111.693
  endloop
 endfacet

 facet normal -0.259199 0.965441 -0.027197
  outer loop
  vertex -2.56485 12.4585 77.9485
  vertex -5.46256 11.1365 58.6369
  vertex -7.09631 11.3793 82.828
  endloop
 endfacet

 facet normal -0.435379 -0.824285 -0.361937
  outer loop
  vertex -19.512 -24.398 57.5565
  vertex -5.8182 -33.935 62.8038
  vertex -14.4832 -32.9049 70.881
  endloop
 endfacet

 facet normal -0.182356 0.882879 0.432748
  outer loop
  vertex 31.1172 26.4994 112.434
  vertex 35.3632 30.6435 105.769
  vertex 30.0411 30.6012 103.613
  endloop
 endfacet

 facet normal -0.583291 -0.810557 -0.0526204
  outer loop
  vertex 31.1809 -41.3066 27.1143
  vertex 27.7241 -39.7768 41.869
  vertex 16.2963 -30.7114 28.9017
  endloop
 endfacet

 facet normal 0.662814 -0.702605 0.258889
  outer loop
  vertex 5.31533 -16.9999 80.2601
  vertex -6.7721 -27.3672 83.0704
  vertex -5.8182 -33.935 62.8038
  endloop
 endfacet

 facet normal -0.459042 0.772497 0.438782
  outer loop
  vertex 9.6797 4.99755 100.125
  vertex 6.38619 8.42578 90.6436
  vertex -2.58205 3.29196 90.2996
  endloop
 endfacet

 facet normal 0.941581 0.290385 -0.170592
  outer loop
  vertex 74.1775 6.97171 41.443
  vertex 77.4438 -9.29252 31.7864
  vertex 74.1037 -2.43334 25.0263
  endloop
 endfacet

 facet normal 0.192067 -0.870057 0.453995
  outer loop
  vertex 22.6169 2.45895 96.7873
  vertex 29.5429 11.7657 111.693
  vertex 7.05195 -3.02998 92.853
  endloop
 endfacet

 facet normal 0.0728048 0.717841 0.692389
  outer loop
  vertex 74.1037 -2.43334 25.0263
  vertex 77.4438 -9.29252 31.7864
  vertex 82.9968 -9.75807 31.6852
  endloop
 endfacet

 facet normal 0.181461 0.983299 0.0139757
  outer loop
  vertex 56.4394 12.5683 14.206
  vertex 54.832 12.9908 5.35187
  vertex 31.863 17.0913 15.0763
  endloop
 endfacet

 facet normal -0.444492 -0.893803 0.0595142
  outer loop
  vertex 12.6977 -28.1816 5.31038
  vertex 17.848 -29.9476 17.2534
  vertex 7.33785 -24.8425 15.4258
  endloop
 endfacet

 facet normal 0.882664 -0.251193 -0.397249
  outer loop
  vertex 82.0118 -22.4488 25.6991
  vertex 74.378 -16.983 5.28087
  vertex 84.2329 -10.8092 23.2742
  endloop
 endfacet

 facet normal -0.814464 -0.284658 -0.505588
  outer loop
  vertex 7.37312 -20.2731 19.886
  vertex 6.41978 -6.82797 13.8519
  vertex 10.0612 -10.7915 10.2174
  endloop
 endfacet

 facet normal -0.390004 -0.136023 0.910711
  outer loop
  vertex 48.752 -10.7503 75.2489
  vertex 29.2369 1.37228 68.7024
  vertex 27.1611 -20.2105 64.5898
  endloop
 endfacet

 facet normal -0.0274369 -0.232144 -0.972294
  outer loop
  vertex 19.8744 -37.0502 7.22532
  vertex 12.6977 -28.1816 5.31038
  vertex 46.4701 -32.1801 5.31205
  endloop
 endfacet

 facet normal -0.0027032 0.00739136 -0.999969
  outer loop
  vertex 54.9234 -0.264993 5.37624
  vertex 70.4716 -5.59137 5.29483
  vertex -6.45279 -22.7646 5.37584
  endloop
 endfacet

 facet normal -0.968955 0.0377254 -0.244342
  outer loop
  vertex -21.5937 -5.90878 86.3794
  vertex -19.3417 -1.29074 78.1619
  vertex -20.0183 -24.4914 77.2628
  endloop
 endfacet

 facet normal -0.800843 0.482166 0.355199
  outer loop
  vertex 29.227 18.7072 44.5395
  vertex 28.565 26.4273 32.5673
  vertex 21.0509 14.744 31.4851
  endloop
 endfacet

 facet normal -0.541561 0.767633 -0.342712
  outer loop
  vertex -4.46217 33.0562 103.48
  vertex 8.38038 43.9843 107.664
  vertex 3.26982 34.3156 94.0829
  endloop
 endfacet

 facet normal -0.33642 0.317391 0.886614
  outer loop
  vertex -21.5937 -5.90878 86.3794
  vertex -4.20537 -8.04033 93.7404
  vertex -2.58205 3.29196 90.2996
  endloop
 endfacet

 facet normal -0.0656472 -0.81725 0.572532
  outer loop
  vertex 12.4604 -27.6314 52.3115
  vertex 23.5493 -31.6159 47.8953
  vertex 27.1611 -20.2105 64.5898
  endloop
 endfacet

 facet normal 0.187784 0.94456 0.26934
  outer loop
  vertex 32.6508 16.5741 59.5619
  vertex 57.8143 13.2049 53.8334
  vertex 46.16 16.6259 49.9615
  endloop
 endfacet

 facet normal 0.0742596 -0.690865 0.71916
  outer loop
  vertex 10.6081 28.9536 101.517
  vertex 16.2198 41.0042 112.514
  vertex 1.88037 37.0664 110.211
  endloop
 endfacet

 facet normal -0.0287385 -0.957659 -0.286465
  outer loop
  vertex 46.4701 -32.1801 5.31205
  vertex 46.7509 -33.6833 10.309
  vertex 31.4526 -34.7439 15.3895
  endloop
 endfacet

 facet normal -0.420257 -0.632165 0.650961
  outer loop
  vertex 17.848 -29.9476 17.2534
  vertex 7.37312 -20.2731 19.886
  vertex 7.33785 -24.8425 15.4258
  endloop
 endfacet

 facet normal -0.24678 0.331143 0.910738
  outer loop
  vertex -5.43409 1.44832 7.63063
  vertex -1.81486 -7.48487 11.8594
  vertex 6.41978 -6.82797 13.8519
  endloop
 endfacet

 facet normal 0.635672 -0.766341 -0.0929684
  outer loop
  vertex -6.7721 -27.3672 83.0704
  vertex 5.31533 -16.9999 80.2601
  vertex 3.63042 -19.4018 88.5387
  endloop
 endfacet

 facet normal 0.4268 0.890618 -0.156978
  outer loop
  vertex 63.9359 15.7362 34.6951
  vertex 63.0925 13.9103 22.043
  vertex 49.9605 21.4943 29.3667
  endloop
 endfacet

 facet normal 0.0719849 -0.993732 0.0855324
  outer loop
  vertex 39.4984 -40.3041 46.2183
  vertex 42.7133 -41.4276 30.4594
  vertex 49.2078 -39.9662 41.9724
  endloop
 endfacet

 facet normal -0.212257 -0.856327 0.470798
  outer loop
  vertex 42.5512 -31.0914 64.3516
  vertex 27.7241 -39.7768 41.869
  vertex 39.4984 -40.3041 46.2183
  endloop
 endfacet

 facet normal -0.0199094 0.991133 0.13137
  outer loop
  vertex 59.223 11.8868 63.9912
  vertex 57.8143 13.2049 53.8334
  vertex 43.6051 11.6081 63.7272
  endloop
 endfacet

 facet normal -0.653475 0.62486 -0.427224
  outer loop
  vertex 2.11345 16.7165 32.4448
  vertex -7.55354 1.50641 24.9849
  vertex -8.19249 14.4554 44.9015
  endloop
 endfacet

 facet normal 0.181497 -0.983181 0.0203375
  outer loop
  vertex 19.8744 -37.0502 7.22532
  vertex 46.4701 -32.1801 5.31205
  vertex 31.4526 -34.7439 15.3895
  endloop
 endfacet

 facet normal 0.912515 -0.403228 0.0687287
  outer loop
  vertex 5.31533 -16.9999 80.2601
  vertex 10.3975 -3.88809 89.7095
  vertex 3.63042 -19.4018 88.5387
  endloop
 endfacet

 facet normal -0.708016 0.479712 -0.518256
  outer loop
  vertex -4.46217 33.0562 103.48
  vertex 3.26982 34.3156 94.0829
  vertex -4.24593 23.641 94.4699
  endloop
 endfacet

 facet normal 0.00323506 -0.000507335 -0.999995
  outer loop
  vertex 8.90513 5.3768 5.27491
  vertex 22.3958 18.5504 5.31187
  vertex -0.456871 -12.8818 5.25388
  endloop
 endfacet

 facet normal 0.615002 -0.624461 0.481479
  outer loop
  vertex 67.7567 -19.7853 64.5325
  vertex 62.428 -28.3823 60.189
  vertex 71.8478 -25.795 51.5126
  endloop
 endfacet

 facet normal -0.186776 -0.962818 -0.195184
  outer loop
  vertex -1.42583 -28.6978 35.9278
  vertex 16.2963 -30.7114 28.9017
  vertex -1.69333 -30.4149 44.6539
  endloop
 endfacet

 facet normal -0.847264 0.293747 -0.442557
  outer loop
  vertex 6.23926 4.2788 21.5696
  vertex 10.3931 6.12479 14.8424
  vertex 6.41978 -6.82797 13.8519
  endloop
 endfacet

 facet normal 0.29468 -0.95493 0.0356603
  outer loop
  vertex 55.2598 -29.1207 14.605
  vertex 46.4701 -32.1801 5.31205
  vertex 67.266 -25.7619 5.33583
  endloop
 endfacet

 facet normal -0.454271 0.890126 -0.0362436
  outer loop
  vertex 10.3931 6.12479 14.8424
  vertex 6.23926 4.2788 21.5696
  vertex 31.863 17.0913 15.0763
  endloop
 endfacet

 facet normal 0.153622 -0.825508 -0.543081
  outer loop
  vertex 55.1358 -33.819 21.7115
  vertex 55.2598 -29.1207 14.605
  vertex 64.2776 -29.0771 17.0897
  endloop
 endfacet

 facet normal 0.117815 0.246227 0.962025
  outer loop
  vertex 11.3227 10.6954 68.51
  vertex 16.8818 -3.67468 71.5072
  vertex 29.2369 1.37228 68.7024
  endloop
 endfacet

 facet normal 0.380583 -0.254085 0.889155
  outer loop
  vertex 67.7567 -19.7853 64.5325
  vertex 48.752 -10.7503 75.2489
  vertex 47.8806 -23.292 72.038
  endloop
 endfacet

 facet normal 0.211995 -0.889037 0.405796
  outer loop
  vertex 7.33785 -24.8425 15.4258
  vertex 1.37167 -29.6384 8.03567
  vertex 12.6977 -28.1816 5.31038
  endloop
 endfacet

 facet normal 0.545238 0.821869 0.165069
  outer loop
  vertex 63.9359 15.7362 34.6951
  vertex 56.6766 18.9335 42.754
  vertex 68.2421 9.49475 51.547
  endloop
 endfacet

 facet normal -0.874791 -0.198171 -0.442118
  outer loop
  vertex -20.5117 -9.21455 46.4417
  vertex -10.108 -20.9836 31.132
  vertex -15.6197 -19.235 41.2536
  endloop
 endfacet

 facet normal 0.514069 -0.741902 -0.430482
  outer loop
  vertex -4.71178 -24.599 55.313
  vertex 13.9773 -17.5217 65.4339
  vertex 1.50083 -25.9176 65.0045
  endloop
 endfacet

 facet normal 0.405946 -0.203002 0.891066
  outer loop
  vertex 48.752 -10.7503 75.2489
  vertex 67.7567 -19.7853 64.5325
  vertex 63.7695 -6.07431 69.4726
  endloop
 endfacet

 facet normal 0.072567 0.994234 -0.0789494
  outer loop
  vertex -2.56485 12.4585 77.9485
  vertex 11.3227 10.6954 68.51
  vertex -5.46256 11.1365 58.6369
  endloop
 endfacet

 facet normal 0.967685 -0.167192 -0.188768
  outer loop
  vertex 77.1601 -20.2484 40.0356
  vertex 75.2355 -20.4616 30.3582
  vertex 77.4438 -9.29252 31.7864
  endloop
 endfacet

 facet normal -0.562358 -0.817481 0.124411
  outer loop
  vertex -15.2951 -17.3399 55.1727
  vertex -15.6197 -19.235 41.2536
  vertex -4.71178 -24.599 55.313
  endloop
 endfacet

 facet normal -0.353406 0.927204 -0.124085
  outer loop
  vertex 5.59186 20.2002 48.5694
  vertex 2.11345 16.7165 32.4448
  vertex -8.19249 14.4554 44.9015
  endloop
 endfacet

 facet normal 0.966629 0.23147 -0.109772
  outer loop
  vertex 21.2407 36.329 104.227
  vertex 19.4853 38.6301 93.6212
  vertex 18.3093 45.1973 97.1142
  endloop
 endfacet

 facet normal 0.113248 -0.982508 0.147825
  outer loop
  vertex 16.2963 -30.7114 28.9017
  vertex 12.4604 -27.6314 52.3115
  vertex -1.69333 -30.4149 44.6539
  endloop
 endfacet

 facet normal 0.730816 0.590844 -0.341777
  outer loop
  vertex 74.1037 -2.43334 25.0263
  vertex 63.9359 15.7362 34.6951
  vertex 74.1775 6.97171 41.443
  endloop
 endfacet

 facet normal -0.720526 0.367941 -0.587761
  outer loop
  vertex 4.5982 36.3585 84.129
  vertex -2.56485 12.4585 77.9485
  vertex -7.09631 11.3793 82.828
  endloop
 endfacet

 facet normal -0.797978 0.0216278 -0.602299
  outer loop
  vertex -16.0818 1.18279 36.2723
  vertex -7.55354 1.50641 24.9849
  vertex -7.13561 -15.087 23.8353
  endloop
 endfacet

 facet normal -0.860982 -0.117258 -0.494934
  outer loop
  vertex -20.5117 -9.21455 46.4417
  vertex -16.0818 1.18279 36.2723
  vertex -10.108 -20.9836 31.132
  endloop
 endfacet

 facet normal 0.340741 -0.715371 0.610032
  outer loop
  vertex 10.6081 28.9536 101.517
  vertex 21.2407 36.329 104.227
  vertex 16.2198 41.0042 112.514
  endloop
 endfacet

 facet normal 0.314597 -0.207141 0.926348
  outer loop
  vertex 10.3975 -3.88809 89.7095
  vertex -4.20537 -8.04033 93.7404
  vertex 3.63042 -19.4018 88.5387
  endloop
 endfacet

 facet normal 0.589331 0.0321235 -0.807253
  outer loop
  vertex 3.33072 19.6172 82.5374
  vertex -2.56485 12.4585 77.9485
  vertex 4.5982 36.3585 84.129
  endloop
 endfacet

 facet normal 0.833049 0.536967 -0.133023
  outer loop
  vertex 74.1037 -2.43334 25.0263
  vertex 63.0925 13.9103 22.043
  vertex 63.9359 15.7362 34.6951
  endloop
 endfacet

 facet normal -0.924143 0.368883 0.0994229
  outer loop
  vertex 3.26982 34.3156 94.0829
  vertex 6.27608 42.7545 90.716
  vertex -7.09631 11.3793 82.828
  endloop
 endfacet

 facet normal 0.896258 -0.221892 0.384039
  outer loop
  vertex 67.7567 -19.7853 64.5325
  vertex 71.8478 -25.795 51.5126
  vertex 76.1413 -2.21627 55.116
  endloop
 endfacet

 facet normal -0.505195 0.384336 0.772699
  outer loop
  vertex 10.0612 -10.7915 10.2174
  vertex -6.45279 -22.7646 5.37584
  vertex 7.33785 -24.8425 15.4258
  endloop
 endfacet

 facet normal 0.0470974 0.429433 -0.90187
  outer loop
  vertex 38.3743 19.9742 16.789
  vertex 56.4394 12.5683 14.206
  vertex 31.863 17.0913 15.0763
  endloop
 endfacet

 facet normal 0.373979 -0.592355 0.713621
  outer loop
  vertex 62.428 -28.3823 60.189
  vertex 67.7567 -19.7853 64.5325
  vertex 47.8806 -23.292 72.038
  endloop
 endfacet

 facet normal 0.698622 -0.496307 -0.515371
  outer loop
  vertex -4.71178 -24.599 55.313
  vertex 1.50083 -25.9176 65.0045
  vertex -5.8182 -33.935 62.8038
  endloop
 endfacet

 facet normal -0.755836 0.586119 0.291849
  outer loop
  vertex -5.46256 11.1365 58.6369
  vertex -8.19249 14.4554 44.9015
  vertex -17.3628 -2.17747 54.5558
  endloop
 endfacet

 facet normal -0.303595 0.568107 -0.764908
  outer loop
  vertex -7.55354 1.50641 24.9849
  vertex 2.11345 16.7165 32.4448
  vertex 6.23926 4.2788 21.5696
  endloop
 endfacet

 facet normal 0.247357 0.740331 -0.625079
  outer loop
  vertex 30.0411 30.6012 103.613
  vertex 35.3632 30.6435 105.769
  vertex 36.3632 19.8498 93.3807
  endloop
 endfacet

 facet normal 0.803984 -0.594646 -0.00229079
  outer loop
  vertex 22.6169 2.45895 96.7873
  vertex 38.1957 23.4682 110.779
  vertex 29.5429 11.7657 111.693
  endloop
 endfacet

 facet normal -0.909411 0.134738 0.393467
  outer loop
  vertex -2.1548 20.6236 100.336
  vertex -4.24593 23.641 94.4699
  vertex -9.31655 8.58915 87.9046
  endloop
 endfacet

 facet normal 0.0200643 0.986651 -0.161607
  outer loop
  vertex 79.9774 -3.08799 21.7587
  vertex 70.4716 -5.59137 5.29483
  vertex 74.1037 -2.43334 25.0263
  endloop
 endfacet

 facet normal -0.404914 -0.623491 -0.668807
  outer loop
  vertex -10.108 -20.9836 31.132
  vertex -7.13561 -15.087 23.8353
  vertex 7.37312 -20.2731 19.886
  endloop
 endfacet

 facet normal -0.778315 -0.575739 0.250501
  outer loop
  vertex 17.848 -29.9476 17.2534
  vertex 12.6977 -28.1816 5.31038
  vertex 19.8744 -37.0502 7.22532
  endloop
 endfacet

 facet normal 0.652301 -0.756469 -0.0475194
  outer loop
  vertex 67.266 -25.7619 5.33583
  vertex 75.2355 -20.4616 30.3582
  vertex 64.2776 -29.0771 17.0897
  endloop
 endfacet

 facet normal 0.553656 -0.797093 -0.241056
  outer loop
  vertex 10.3975 -3.88809 89.7095
  vertex 13.1848 0.510763 81.5657
  vertex 22.6169 2.45895 96.7873
  endloop
 endfacet

 facet normal -0.947931 -0.23129 0.218932
  outer loop
  vertex -4.46217 33.0562 103.48
  vertex -4.24593 23.641 94.4699
  vertex -2.1548 20.6236 100.336
  endloop
 endfacet

 facet normal 0.443804 0.0154861 -0.89599
  outer loop
  vertex 36.3632 19.8498 93.3807
  vertex 13.1848 0.510763 81.5657
  vertex 9.65761 7.29352 79.9358
  endloop
 endfacet

 facet normal -0.00649345 -0.00100056 -0.999978
  outer loop
  vertex 74.378 -16.983 5.28087
  vertex 67.266 -25.7619 5.33583
  vertex 70.4716 -5.59137 5.29483
  endloop
 endfacet

 facet normal -0.0293579 -0.997445 0.0651223
  outer loop
  vertex 39.4984 -40.3041 46.2183
  vertex 31.1809 -41.3066 27.1143
  vertex 42.7133 -41.4276 30.4594
  endloop
 endfacet

 facet normal -0.661097 -0.120285 -0.740596
  outer loop
  vertex -15.2951 -17.3399 55.1727
  vertex -22.557 -7.86388 60.1161
  vertex -17.3628 -2.17747 54.5558
  endloop
 endfacet

 facet normal -0.142751 -0.494303 -0.857489
  outer loop
  vertex 1.37167 -29.6384 8.03567
  vertex -6.45279 -22.7646 5.37584
  vertex 12.6977 -28.1816 5.31038
  endloop
 endfacet

 facet normal -0.926622 0.365422 0.0885352
  outer loop
  vertex 8.38038 43.9843 107.664
  vertex 6.27608 42.7545 90.716
  vertex 3.26982 34.3156 94.0829
  endloop
 endfacet

 facet normal 0.532847 0.0400136 -0.845265
  outer loop
  vertex 4.5982 36.3585 84.129
  vertex 19.4853 38.6301 93.6212
  vertex 3.33072 19.6172 82.5374
  endloop
 endfacet

 facet normal -0.107229 -0.723678 0.681756
  outer loop
  vertex 10.0612 -10.7915 10.2174
  vertex 6.41978 -6.82797 13.8519
  vertex -1.81486 -7.48487 11.8594
  endloop
 endfacet

 facet normal 0.461836 0.465083 -0.755252
  outer loop
  vertex 56.4394 12.5683 14.206
  vertex 65.3927 1.68511 12.9791
  vertex 54.9234 -0.264993 5.37624
  endloop
 endfacet

 facet normal 0.792322 0.336843 -0.508687
  outer loop
  vertex 79.9774 -3.08799 21.7587
  vertex 84.2329 -10.8092 23.2742
  vertex 70.4716 -5.59137 5.29483
  endloop
 endfacet

 facet normal -0.251374 0.0605908 -0.965992
  outer loop
  vertex -7.55354 1.50641 24.9849
  vertex 6.23926 4.2788 21.5696
  vertex -7.13561 -15.087 23.8353
  endloop
 endfacet

 facet normal 0.703245 -0.699768 -0.125579
  outer loop
  vertex 77.1601 -20.2484 40.0356
  vertex 62.8857 -34.1177 37.3827
  vertex 64.2776 -29.0771 17.0897
  endloop
 endfacet

 facet normal -0.570377 -0.401049 0.716819
  outer loop
  vertex -2.1548 20.6236 100.336
  vertex -9.31655 8.58915 87.9046
  vertex -2.58205 3.29196 90.2996
  endloop
 endfacet

 facet normal 0.295959 -0.206186 0.932682
  outer loop
  vertex 29.2369 1.37228 68.7024
  vertex 16.8818 -3.67468 71.5072
  vertex 27.1611 -20.2105 64.5898
  endloop
 endfacet

 facet normal -0.350424 -0.813794 -0.463619
  outer loop
  vertex 17.848 -29.9476 17.2534
  vertex 31.4526 -34.7439 15.3895
  vertex 31.1809 -41.3066 27.1143
  endloop
 endfacet

 facet normal 0.0893765 0.969382 -0.228714
  outer loop
  vertex 2.11345 16.7165 32.4448
  vertex 5.59186 20.2002 48.5694
  vertex 21.0509 14.744 31.4851
  endloop
 endfacet

 facet normal 0.218974 0.863734 0.453888
  outer loop
  vertex 43.6051 11.6081 63.7272
  vertex 57.8143 13.2049 53.8334
  vertex 32.6508 16.5741 59.5619
  endloop
 endfacet

 facet normal -0.0243788 0.633758 0.773147
  outer loop
  vertex 50.7957 1.5085 72.2327
  vertex 59.223 11.8868 63.9912
  vertex 43.6051 11.6081 63.7272
  endloop
 endfacet

 facet normal 0.574843 0.769778 0.277484
  outer loop
  vertex 36.5189 26.3574 43.7216
  vertex 49.9605 21.4943 29.3667
  vertex 41.2332 26.832 32.6388
  endloop
 endfacet

 facet normal -0.829282 0.424186 -0.36381
  outer loop
  vertex 28.9024 20.6026 94.5502
  vertex 23.362 20.3964 106.939
  vertex 30.0411 30.6012 103.613
  endloop
 endfacet

 facet normal -0.429113 0.0627248 0.90107
  outer loop
  vertex -5.43409 1.44832 7.63063
  vertex 6.41978 -6.82797 13.8519
  vertex 10.3931 6.12479 14.8424
  endloop
 endfacet

 facet normal 0.416795 0.483912 -0.769487
  outer loop
  vertex 19.4853 38.6301 93.6212
  vertex 4.5982 36.3585 84.129
  vertex 18.3093 45.1973 97.1142
  endloop
 endfacet

 facet normal -0.585302 -0.800254 -0.130442
  outer loop
  vertex 31.1809 -41.3066 27.1143
  vertex 16.2963 -30.7114 28.9017
  vertex 17.848 -29.9476 17.2534
  endloop
 endfacet

 facet normal -0.699297 -0.361758 0.616535
  outer loop
  vertex -21.5937 -5.90878 86.3794
  vertex -20.0183 -24.4914 77.2628
  vertex -14.1174 -16.907 88.406
  endloop
 endfacet

 facet normal -0.338602 -0.845829 -0.412217
  outer loop
  vertex -22.7219 -26.3611 64.2214
  vertex -19.512 -24.398 57.5565
  vertex -14.4832 -32.9049 70.881
  endloop
 endfacet

 facet normal 0.19018 -0.912459 0.362285
  outer loop
  vertex 55.1522 -35.4013 50.3492
  vertex 39.4984 -40.3041 46.2183
  vertex 49.2078 -39.9662 41.9724
  endloop
 endfacet

 facet normal 0.586254 0.796978 0.145369
  outer loop
  vertex 63.9359 15.7362 34.6951
  vertex 68.2421 9.49475 51.547
  vertex 74.1775 6.97171 41.443
  endloop
 endfacet

 facet normal -0.766846 0.52662 -0.366904
  outer loop
  vertex 3.26982 34.3156 94.0829
  vertex -7.09631 11.3793 82.828
  vertex -4.24593 23.641 94.4699
  endloop
 endfacet

 facet normal 0.396717 -0.892837 -0.213207
  outer loop
  vertex 62.8857 -34.1177 37.3827
  vertex 42.7133 -41.4276 30.4594
  vertex 55.1358 -33.819 21.7115
  endloop
 endfacet

 facet normal 0.639082 -0.705788 -0.305676
  outer loop
  vertex 22.6169 2.45895 96.7873
  vertex 13.1848 0.510763 81.5657
  vertex 35.53 14.8194 95.2454
  endloop
 endfacet

 facet normal 0.819433 -0.523357 0.233724
  outer loop
  vertex -2.58205 3.29196 90.2996
  vertex 4.80431 14.3531 89.1712
  vertex 10.6081 28.9536 101.517
  endloop
 endfacet

 facet normal -0.0223681 -0.397626 0.917275
  outer loop
  vertex 16.8818 -3.67468 71.5072
  vertex 13.9773 -17.5217 65.4339
  vertex 27.1611 -20.2105 64.5898
  endloop
 endfacet

 facet normal 0.683459 -0.681329 0.262058
  outer loop
  vertex 35.53 14.8194 95.2454
  vertex 38.1957 23.4682 110.779
  vertex 22.6169 2.45895 96.7873
  endloop
 endfacet

 facet normal 0.662276 0.711208 -0.23574
  outer loop
  vertex 74.1037 -2.43334 25.0263
  vertex 70.4716 -5.59137 5.29483
  vertex 65.3927 1.68511 12.9791
  endloop
 endfacet

 facet normal -0.949179 -0.284259 -0.135115
  outer loop
  vertex -20.0183 -24.4914 77.2628
  vertex -23.8899 -7.02868 67.7221
  vertex -22.557 -7.86388 60.1161
  endloop
 endfacet

 facet normal -0.243851 0.0551316 -0.968244
  outer loop
  vertex 6.23926 4.2788 21.5696
  vertex 7.37312 -20.2731 19.886
  vertex -7.13561 -15.087 23.8353
  endloop
 endfacet

 facet normal 0.921633 -0.21699 0.321728
  outer loop
  vertex 71.8478 -25.795 51.5126
  vertex 77.1601 -20.2484 40.0356
  vertex 76.1413 -2.21627 55.116
  endloop
 endfacet

 facet normal -0.59916 -0.299008 0.742698
  outer loop
  vertex -2.1548 20.6236 100.336
  vertex 1.88037 37.0664 110.211
  vertex -4.46217 33.0562 103.48
  endloop
 endfacet

 facet normal 0.30422 -0.682687 0.664371
  outer loop
  vertex 4.80431 14.3531 89.1712
  vertex 21.2407 36.329 104.227
  vertex 10.6081 28.9536 101.517
  endloop
 endfacet

 facet normal -0.148785 -0.235484 -0.960422
  outer loop
  vertex -4.71178 -24.599 55.313
  vertex -19.512 -24.398 57.5565
  vertex -15.2951 -17.3399 55.1727
  endloop
 endfacet

 facet normal 0.302645 0.872237 -0.384199
  outer loop
  vertex 49.9605 21.4943 29.3667
  vertex 56.4394 12.5683 14.206
  vertex 38.3743 19.9742 16.789
  endloop
 endfacet

 facet normal -0.10184 -0.867065 -0.487675
  outer loop
  vertex 31.1809 -41.3066 27.1143
  vertex 31.4526 -34.7439 15.3895
  vertex 46.7509 -33.6833 10.309
  endloop
 endfacet

 facet normal -0.0706096 -0.455089 0.887642
  outer loop
  vertex -4.20537 -8.04033 93.7404
  vertex -14.1174 -16.907 88.406
  vertex 3.63042 -19.4018 88.5387
  endloop
 endfacet

 facet normal -0.340921 -0.742313 -0.57684
  outer loop
  vertex -10.108 -20.9836 31.132
  vertex 7.37312 -20.2731 19.886
  vertex -1.42583 -28.6978 35.9278
  endloop
 endfacet

 facet normal 0.478062 -0.855142 0.200472
  outer loop
  vertex 55.1522 -35.4013 50.3492
  vertex 62.8857 -34.1177 37.3827
  vertex 71.8478 -25.795 51.5126
  endloop
 endfacet

 facet normal -0.532845 0.0327673 -0.845578
  outer loop
  vertex -19.512 -24.398 57.5565
  vertex -22.557 -7.86388 60.1161
  vertex -15.2951 -17.3399 55.1727
  endloop
 endfacet

 facet normal 0.435602 -0.883487 0.172342
  outer loop
  vertex 55.1522 -35.4013 50.3492
  vertex 49.2078 -39.9662 41.9724
  vertex 62.8857 -34.1177 37.3827
  endloop
 endfacet

 facet normal 0.800324 0.275098 -0.532731
  outer loop
  vertex 84.2329 -10.8092 23.2742
  vertex 74.378 -16.983 5.28087
  vertex 70.4716 -5.59137 5.29483
  endloop
 endfacet

 facet normal -0.373711 0.926902 -0.0345437
  outer loop
  vertex -7.09631 11.3793 82.828
  vertex -5.46256 11.1365 58.6369
  vertex -17.0163 6.63105 62.738
  endloop
 endfacet

 facet normal 0.370242 0.928378 0.0321694
  outer loop
  vertex 63.9359 15.7362 34.6951
  vertex 49.9605 21.4943 29.3667
  vertex 36.5189 26.3574 43.7216
  endloop
 endfacet

 facet normal -0.00130574 0.948703 0.316166
  outer loop
  vertex 32.6508 16.5741 59.5619
  vertex 5.59186 20.2002 48.5694
  vertex 17.3738 15.5957 62.4346
  endloop
 endfacet

 facet normal 0.367216 -0.720984 0.587652
  outer loop
  vertex 7.05195 -3.02998 92.853
  vertex -4.20537 -8.04033 93.7404
  vertex 10.3975 -3.88809 89.7095
  endloop
 endfacet

 facet normal -0.126689 -0.611597 -0.78096
  outer loop
  vertex -4.71178 -24.599 55.313
  vertex -5.8182 -33.935 62.8038
  vertex -19.512 -24.398 57.5565
  endloop
 endfacet

 facet normal -0.997643 -0.0493425 0.0476746
  outer loop
  vertex 6.41978 -6.82797 13.8519
  vertex 7.37312 -20.2731 19.886
  vertex 6.23926 4.2788 21.5696
  endloop
 endfacet

 facet normal 0.0793363 0.735818 0.672516
  outer loop
  vertex 17.3738 15.5957 62.4346
  vertex 11.3227 10.6954 68.51
  vertex 32.6508 16.5741 59.5619
  endloop
 endfacet

 facet normal 0.168934 0.985489 -0.016537
  outer loop
  vertex 31.863 17.0913 15.0763
  vertex 54.832 12.9908 5.35187
  vertex 22.3958 18.5504 5.31187
  endloop
 endfacet

 facet normal 0.518671 0.852237 0.0683473
  outer loop
  vertex 6.38619 8.42578 90.6436
  vertex 9.65761 7.29352 79.9358
  vertex 4.80457 10.3277 78.931
  endloop
 endfacet

 facet normal -0.869807 0.47974 0.115261
  outer loop
  vertex -19.3417 -1.29074 78.1619
  vertex -17.0163 6.63105 62.738
  vertex -23.8899 -7.02868 67.7221
  endloop
 endfacet

 facet normal 0.556822 -0.786274 -0.26781
  outer loop
  vertex 46.7509 -33.6833 10.309
  vertex 46.4701 -32.1801 5.31205
  vertex 55.2598 -29.1207 14.605
  endloop
 endfacet

 facet normal -0.587657 -0.78794 -0.183875
  outer loop
  vertex -15.6197 -19.235 41.2536
  vertex -10.108 -20.9836 31.132
  vertex -1.69333 -30.4149 44.6539
  endloop
 endfacet

 facet normal 0.178859 -0.933454 0.310921
  outer loop
  vertex -5.8182 -33.935 62.8038
  vertex -6.7721 -27.3672 83.0704
  vertex -14.4832 -32.9049 70.881
  endloop
 endfacet

 facet normal 0.242816 -0.490613 0.836863
  outer loop
  vertex -2.1548 20.6236 100.336
  vertex -2.58205 3.29196 90.2996
  vertex 10.6081 28.9536 101.517
  endloop
 endfacet

 facet normal 0.00254566 0.0210823 -0.999774
  outer loop
  vertex 12.6977 -28.1816 5.31038
  vertex -6.45279 -22.7646 5.37584
  vertex 46.4701 -32.1801 5.31205
  endloop
 endfacet

 facet normal 0.111862 0.887352 0.447318
  outer loop
  vertex 57.8143 13.2049 53.8334
  vertex 56.6766 18.9335 42.754
  vertex 46.16 16.6259 49.9615
  endloop
 endfacet

 facet normal 0.355823 -0.894005 -0.272294
  outer loop
  vertex 46.7509 -33.6833 10.309
  vertex 55.1358 -33.819 21.7115
  vertex 42.7133 -41.4276 30.4594
  endloop
 endfacet

 facet normal 0.281874 -0.543874 0.79041
  outer loop
  vertex -2.1548 20.6236 100.336
  vertex 10.6081 28.9536 101.517
  vertex 1.88037 37.0664 110.211
  endloop
 endfacet

 facet normal -0.721307 0.590227 0.36242
  outer loop
  vertex 30.0411 30.6012 103.613
  vertex 23.362 20.3964 106.939
  vertex 31.1172 26.4994 112.434
  endloop
 endfacet

 facet normal 0.0744071 -0.964563 -0.253144
  outer loop
  vertex 55.2598 -29.1207 14.605
  vertex 67.266 -25.7619 5.33583
  vertex 64.2776 -29.0771 17.0897
  endloop
 endfacet

 facet normal 0.885512 0.393938 0.246337
  outer loop
  vertex 9.65761 7.29352 79.9358
  vertex 16.8818 -3.67468 71.5072
  vertex 11.3227 10.6954 68.51
  endloop
 endfacet

 facet normal 0.643359 -0.357495 -0.676968
  outer loop
  vertex 35.53 14.8194 95.2454
  vertex 13.1848 0.510763 81.5657
  vertex 36.3632 19.8498 93.3807
  endloop
 endfacet

 facet normal 0.980374 -0.18629 -0.064515
  outer loop
  vertex 38.1957 23.4682 110.779
  vertex 35.53 14.8194 95.2454
  vertex 36.3632 19.8498 93.3807
  endloop
 endfacet

endsolid AssimpScene
